<?xml version="1.0" encoding="utf-8"?>
<!-- Generator: Adobe Illustrator 25.0.1, SVG Export Plug-In . SVG Version: 6.00 Build 0)  -->
<svg version="1.1"
	 id="svg10" inkscape:export-filename="G:\Users\suitedoalex\sites\olx-logo-0.png" inkscape:export-xdpi="96" inkscape:export-ydpi="96" inkscape:version="0.92.2 (5c3e80d, 2017-08-06)" sodipodi:docname="olx-logo.svg" xmlns:cc="http://creativecommons.org/ns#" xmlns:dc="http://purl.org/dc/elements/1.1/" xmlns:inkscape="http://www.inkscape.org/namespaces/inkscape" xmlns:rdf="http://www.w3.org/1999/02/22-rdf-syntax-ns#" xmlns:sodipodi="http://sodipodi.sourceforge.net/DTD/sodipodi-0.dtd" xmlns:svg="http://www.w3.org/2000/svg"
	 xmlns="http://www.w3.org/2000/svg" xmlns:xlink="http://www.w3.org/1999/xlink" x="0px" y="0px" viewBox="0 0 4096 4096"
	 style="enable-background:new 0 0 4096 4096;" xml:space="preserve">
<style type="text/css">
	.st0{fill-rule:evenodd;clip-rule:evenodd;fill:url(#SVGID_1_);}
	.st1{fill:#371957;}
	.st2{font-family:'Geomanist-Bold';}
	.st3{font-size:46.9183px;}
	.st4{fill-rule:evenodd;clip-rule:evenodd;fill:none;}
	.st5{fill:#725882;}
	.st6{font-family:'Geomanist-Medium';}
	.st7{font-size:22.5384px;}
	.st8{font-family:'Geomanist-Light';}
	.st9{fill-rule:evenodd;clip-rule:evenodd;fill:#6E0AD6;}
	.st10{fill-rule:evenodd;clip-rule:evenodd;fill:#FFFFFF;}
	.st11{fill-rule:evenodd;clip-rule:evenodd;fill:#8CE563;}
	.st12{fill-rule:evenodd;clip-rule:evenodd;fill:#F28000;}
	.st13{fill:url(#SVGID_2_);}
	.st14{fill:#C8DAEA;}
	.st15{fill:#A9C9DD;}
	.st16{fill:url(#SVGID_3_);}
	.st17{fill:#FFFFFF;stroke:#FFFFFF;stroke-width:5.692;stroke-linecap:round;stroke-linejoin:round;stroke-miterlimit:10;}
	.st18{fill-rule:evenodd;clip-rule:evenodd;fill:#F0E3FA;}
	.st19{fill:#808080;}
	.st20{fill:url(#SVGID_4_);}
	.st21{fill:url(#SVGID_5_);}
	.st22{fill:#FFFFFF;stroke:#FFFFFF;stroke-width:7.8975;stroke-linecap:round;stroke-linejoin:round;stroke-miterlimit:10;}
</style>
<g id="x41UBW_1_">
	
		<image style="overflow:visible;" width="1872" height="2386" id="x41UBW_2_" xlink:href="D6449E83F0201800.png"  transform="matrix(0.5 0 0 0.5 1582.2679 2723.0398)">
	</image>
</g>
<sodipodi:namedview  bordercolor="#666666" borderopacity="1" gridtolerance="10" guidetolerance="10" id="namedview12" inkscape:current-layer="svg10" inkscape:cx="-1875.6051" inkscape:cy="3839.6131" inkscape:pageopacity="0" inkscape:pageshadow="2" inkscape:window-height="837" inkscape:window-maximized="1" inkscape:window-width="1600" inkscape:window-x="-8" inkscape:window-y="-8" inkscape:zoom="0.057659586" objecttolerance="10" pagecolor="#ffffff" showgrid="false">
	</sodipodi:namedview>
<linearGradient id="SVGID_1_" gradientUnits="userSpaceOnUse" x1="2044.8849" y1="2640.4688" x2="2044.8849" y2="2170.7756">
	<stop  offset="0" style="stop-color:#E4DAED"/>
	<stop  offset="0.9394" style="stop-color:#F0E3FA"/>
</linearGradient>
<path class="st0" d="M2452.7,2640.5H1637c-5.3,0-9.6-4.3-9.6-9.6v-450.5c0-5.3,4.3-9.6,9.6-9.6h815.7c5.3,0,9.6,4.3,9.6,9.6v450.5
	C2462.3,2636.2,2458,2640.5,2452.7,2640.5z"/>
<text transform="matrix(1 0 0 1 1912.127 2254.8665)" class="st1 st2 st3">OLX Monitor</text>
<rect x="1826.1" y="2307.2" class="st4" width="443.7" height="78.2"/>
<text transform="matrix(1 0 0 1 1854.8495 2326.356)"><tspan x="0" y="0" class="st5 st6 st7">Não perca sua próxima oportunidade. </tspan><tspan x="-19.7" y="27" class="st5 st8 st7">Seja notificado assim que um novo anúncio </tspan><tspan x="27.8" y="54.1" class="st5 st8 st7">for publicado ou baixar de preço.</tspan></text>
<g>
	<g>
		<g>
			<g>
				
					<image style="overflow:visible;" width="495" height="508" xlink:href="D6449E83F0201801.png"  transform="matrix(1 0 0 1 1670 2265)">
				</image>
			</g>
			<g>
				<path class="st9" d="M1961.8,2566.7h-89c-11,0-19.9-8.9-19.9-19.9v-89c0-11,8.9-19.9,19.9-19.9h89c11,0,19.9,8.9,19.9,19.9v89
					C1981.7,2557.7,1972.8,2566.7,1961.8,2566.7z"/>
			</g>
		</g>
		
			<g id="g8" transform="matrix(104.32129,0,0,104.32129,379.02279,1163.6932)" inkscape:export-filename="G:\Users\suitedoalex\sites\olx-logo-5.png" inkscape:export-xdpi="2.8768296" inkscape:export-ydpi="2.8768296">
			<path id="path2" inkscape:connector-curvature="0" class="st10" d="M14.5,13c-0.1,0-0.1,0-0.1-0.1c0-0.1,0-0.1,0.1-0.1
				s0.1,0,0.1,0.1C14.5,12.9,14.5,13,14.5,13 M14.5,13.1c0.1,0,0.2-0.1,0.2-0.2c0-0.1-0.1-0.2-0.2-0.2c-0.1,0-0.2,0.1-0.2,0.2
				C14.3,13,14.4,13.1,14.5,13.1"/>
			<path id="path4" inkscape:connector-curvature="0" class="st11" d="M14.7,12.9h0.2c0,0,0,0,0,0v-0.1c0,0,0,0,0,0L14.7,12.9
				l0.1-0.3c0,0,0,0,0,0h-0.1c0,0,0,0,0,0L14.7,12.9C14.7,12.9,14.7,12.9,14.7,12.9"/>
			<path id="path6" inkscape:connector-curvature="0" class="st12" d="M14.9,13.1l0.1-0.1l0.1,0.1c0,0,0,0,0,0l0,0c0,0,0,0,0,0
				l-0.1-0.1l0.1-0.1c0,0,0,0,0,0l0,0c0,0,0,0,0,0L15,12.8l-0.1-0.1c0,0,0,0,0,0l0,0c0,0,0,0,0,0l0.1,0.1L14.9,13.1
				C14.9,13,14.9,13,14.9,13.1L14.9,13.1C14.9,13.1,14.9,13.1,14.9,13.1"/>
		</g>
	</g>
	<g>
		<g>
			
				<image style="overflow:visible;" width="491" height="490" xlink:href="D6449E83F0201807.png"  transform="matrix(1 0 0 1 1915 2295)">
			</image>
		</g>
		<g>
			
				<linearGradient id="SVGID_2_" gradientUnits="userSpaceOnUse" x1="1092.551" y1="2584.0396" x2="1092.4148" y2="2583.7219" gradientTransform="matrix(240 0 0 -240 -260032 622628)">
				<stop  offset="0" style="stop-color:#37AEE2"/>
				<stop  offset="1" style="stop-color:#1E96C8"/>
			</linearGradient>
			<circle class="st13" cx="2161.1" cy="2503.2" r="65.4"/>
			<path class="st14" d="M2149.1,2533.2c-2.1,0-1.8-0.8-2.5-2.8l-6.2-20.5l48-28.5"/>
			<path class="st15" d="M2149.1,2533.2c1.6,0,2.4-0.7,3.3-1.6l8.7-8.5l-10.9-6.6"/>
			
				<linearGradient id="SVGID_3_" gradientUnits="userSpaceOnUse" x1="1095.8835" y1="2579.5522" x2="1095.9877" y2="2579.3533" gradientTransform="matrix(130.4927 0 0 -109.4498 -140839.1406 284836.3438)">
				<stop  offset="0" style="stop-color:#EFF7FC"/>
				<stop  offset="1" style="stop-color:#FFFFFF"/>
			</linearGradient>
			<path class="st16" d="M2150.2,2516.5l26.4,19.5c3,1.7,5.2,0.8,5.9-2.8l10.7-50.6c1.1-4.4-1.7-6.4-4.6-5.1l-63,24.3
				c-4.3,1.7-4.3,4.1-0.8,5.2l16.2,5l37.4-23.6c1.8-1.1,3.4-0.5,2.1,0.7"/>
		</g>
	</g>
	<g>
		<path class="st17" d="M2040.3,2481.7v18.1h17.4v4.6h-17.4v18.3h-4.9v-18.3h-17.4v-4.6h17.4v-18.1H2040.3z"/>
	</g>
</g>
<path class="st18" d="M1246.9,2744.7H433.2c-5.8,0-10.6-4.7-10.6-10.6v-552.8c0-5.8,4.7-10.6,10.6-10.6h813.7
	c5.8,0,10.6,4.7,10.6,10.6v552.8C1257.5,2740,1252.7,2744.7,1246.9,2744.7z"/>
<text transform="matrix(1 0 0 1 707.2854 2270.7197)" class="st1 st2 st3">OLX Monitor</text>
<rect x="621.3" y="2315.8" class="st4" width="443.7" height="78.2"/>
<text transform="matrix(1 0 0 1 650.0078 2334.9431)"><tspan x="0" y="0" class="st19 st6 st7">Não perca sua próxima oportunidade. </tspan><tspan x="-19.7" y="27" class="st19 st8 st7">Seja notificado assim que um novo anúncio </tspan><tspan x="30" y="54.1" class="st19 st8 st7">for publicado ou baixar de preço</tspan></text>
<g>
	<g>
		<g>
			<g>
				
					<image style="overflow:visible;" width="532" height="549" xlink:href="D6449E83F0201802.png"  transform="matrix(1 0 0 1 399.1584 2290.2405)">
				</image>
			</g>
			<g>
				<path class="st9" d="M726.8,2631.2H603.3c-15.3,0-27.7-12.4-27.7-27.7V2480c0-15.3,12.4-27.7,27.7-27.7h123.5
					c15.3,0,27.7,12.4,27.7,27.7v123.5C754.4,2618.8,742.1,2631.2,726.8,2631.2z"/>
			</g>
		</g>
		
			<g id="g8_1_" transform="matrix(104.32129,0,0,104.32129,379.02279,1163.6932)" inkscape:export-filename="G:\Users\suitedoalex\sites\olx-logo-5.png" inkscape:export-xdpi="2.8768296" inkscape:export-ydpi="2.8768296">
			<path id="path2_1_" inkscape:connector-curvature="0" class="st10" d="M2.3,13.4c-0.1,0-0.1-0.1-0.1-0.2c0-0.1,0.1-0.2,0.1-0.2
				s0.1,0.1,0.1,0.2C2.5,13.4,2.4,13.4,2.3,13.4 M2.3,13.5c0.1,0,0.2-0.1,0.2-0.3c0-0.2-0.1-0.3-0.2-0.3c-0.1,0-0.2,0.1-0.2,0.3
				C2.1,13.4,2.2,13.5,2.3,13.5"/>
			<path id="path4_1_" inkscape:connector-curvature="0" class="st11" d="M2.7,13.3h0.2c0,0,0,0,0,0v-0.1c0,0,0,0,0,0H2.8v-0.3
				c0,0,0,0,0,0H2.7c0,0,0,0,0,0L2.7,13.3C2.6,13.3,2.7,13.3,2.7,13.3"/>
			<path id="path6_1_" inkscape:connector-curvature="0" class="st12" d="M3,13.5l0.1-0.2l0.1,0.2c0,0,0,0,0,0l0.1,0c0,0,0,0,0,0
				l-0.1-0.2l0.1-0.2c0,0,0,0,0,0l-0.1,0c0,0,0,0,0,0l-0.1,0.1L3,13c0,0,0,0,0,0l-0.1,0c0,0,0,0,0,0l0.1,0.2L3,13.5
				C2.9,13.5,2.9,13.5,3,13.5L3,13.5C3,13.6,3,13.5,3,13.5"/>
		</g>
	</g>
	<g>
		<g>
			
				<image style="overflow:visible;" width="525" height="525" xlink:href="D6449E83F0201803.png"  transform="matrix(1 0 0 1 740.1584 2331.4946)">
			</image>
		</g>
		<g>
			
				<linearGradient id="SVGID_4_" gradientUnits="userSpaceOnUse" x1="1087.7578" y1="2583.9456" x2="1087.5687" y2="2583.5046" gradientTransform="matrix(240 0 0 -240 -260032 622628)">
				<stop  offset="0" style="stop-color:#37AEE2"/>
				<stop  offset="1" style="stop-color:#1E96C8"/>
			</linearGradient>
			<circle class="st20" cx="1003.3" cy="2543.1" r="90.8"/>
			<path class="st14" d="M986.6,2584.7c-2.9,0-2.4-1.1-3.5-3.9l-8.6-28.5l66.6-39.5"/>
			<path class="st15" d="M986.6,2584.7c2.3,0,3.3-1,4.5-2.3l12.1-11.8l-15.1-9.1"/>
			
				<linearGradient id="SVGID_5_" gradientUnits="userSpaceOnUse" x1="1087.0247" y1="2579.1821" x2="1087.1692" y2="2578.906" gradientTransform="matrix(130.4927 0 0 -109.4498 -140839.1406 284836.3438)">
				<stop  offset="0" style="stop-color:#EFF7FC"/>
				<stop  offset="1" style="stop-color:#FFFFFF"/>
			</linearGradient>
			<path class="st21" d="M988.2,2561.6l36.6,27c4.2,2.3,7.2,1.1,8.2-3.9l14.9-70.2c1.5-6.1-2.3-8.9-6.3-7.1l-87.4,33.7
				c-6,2.4-5.9,5.7-1.1,7.2l22.4,7l51.9-32.8c2.5-1.5,4.7-0.7,2.9,1"/>
		</g>
	</g>
	<g>
		<path class="st22" d="M835.7,2513.3v25.2H860v6.4h-24.2v25.4h-6.9v-25.4h-24.2v-6.4h24.2v-25.2H835.7z"/>
	</g>
</g>
</svg>
